<svg width="340" height="77" version="1.1" viewBox="0 0 340 77" xmlns="http://www.w3.org/2000/svg">
 <g transform="scale(2.1384 2.1389)" fill="#394149" stroke-width="1.009">
  <path class="ccustom" d="m27.857 14.898c3.1463 0 3.8542 1.384 3.8542 3.1103 0 1.8298-0.85627 3.1407-3.8412 3.1407-2.9659 0-3.8231-1.2348-3.8231-3.1407 0-1.8755 0.93448-3.1103 3.8101-3.1103z"/>
  <path class="ccustom" d="m60.738 14.898c3.1463 0 3.8542 1.384 3.8542 3.1103 0 1.8298-0.85727 3.1407-3.8412 3.1407-2.9649 0-3.8231-1.2348-3.8231-3.1407 0-1.8755 0.93448-3.1103 3.8101-3.1103z"/>
  <path class="ccustom" d="m0 36v-36h159v36zm75.779-2.0309h81.216v-31.938h-81.216zm-47.907-9.7552c5.5858 0 7.934-2.4401 7.934-6.251 0-3.8728-2.645-6.1748-7.934-6.1748-5.2078 0-7.9491 2.5-7.9491 6.1748 0 4.147 2.8756 6.251 7.9491 6.251zm-19.421-12.152v11.969h11.274v-3.1874h-7.1951v-8.7814zm39.972 11.969-0.10528-1.1596c-1.3645 0.98618-3.0253 1.4608-4.6975 1.3424-2.5137 0-4.6072-0.76259-5.7813-2.302-0.77446-1.1239-1.1655-2.473-1.114-3.8424-0.04402-1.3407 0.36056-2.6571 1.148-3.7358 1.1882-1.4937 3.3419-2.4848 6.5484-2.4848 3.6888 0 5.8565 1.1434 6.789 3.0646 0.20013 0.45248 0.31774 0.93785 0.34692 1.4328h-3.9024c-0.09836-0.30077-0.28135-0.5658-0.5264-0.76259-0.77736-0.52193-1.7056-0.7633-2.635-0.68542-0.54515-0.06692-1.0982-0.01594-1.6224 0.14968-0.52419 0.16562-1.0078 0.44202-1.4187 0.81092-0.46664 0.64683-0.68572 1.4431-0.61664 2.2411-0.05414 0.76127 0.14729 1.5188 0.57152 2.1497 0.4146 0.39124 0.90751 0.68755 1.4451 0.8691 0.53773 0.18146 1.1075 0.24391 1.6711 0.18288 1.1193 0.0922 2.2305-0.25741 3.1012-0.97583 0.187-0.2368 0.31594-0.51523 0.376-0.81234h-4.1991v-2.5721h7.8578v7.0897zm12.33 0.18278c5.5848 0 7.934-2.4401 7.934-6.251 0-3.8728-2.6491-6.1748-7.934-6.1748-5.2078 0-7.9491 2.5-7.9491 6.1748 0 4.147 2.8756 6.251 7.9491 6.251z" clip-rule="evenodd" fill-rule="evenodd"/>
  <path class="ccustom" d="m82.649 23.985v-11.969h2.9077v11.969z"/>
  <path class="ccustom" d="m100.49 18.984c-0.73695 0.97583-2.0053 1.4216-3.7931 1.4328-0.377 0-5.3753-0.01523-5.3753-0.01523v3.5834h-2.8455v-11.969h8.2218c0.65895-0.07057 1.3255 2.03e-4 1.9552 0.20766 0.63067 0.20755 1.2102 0.54711 1.7025 0.99664 0.64972 0.85722 0.96556 1.9261 0.88835 3.0036 0.0662 0.98009-0.19952 1.9538-0.754 2.7599zm-2.3332-3.9023c-0.3008-0.45694-0.94952-0.7108-2.0474-0.7108h-4.8027v3.6434h4.7717c1.1741 0 1.7928-0.2437 2.0785-0.71689 0.16945-0.33336 0.24264-0.70877 0.21056-1.0824 0.02507-0.38972-0.04712-0.77954-0.21056-1.1332z"/>
  <path class="ccustom" d="m109.63 24.168c-5.3602 0-7.0006-2.0309-7.0006-4.0404h3.0411c0 0.99106 1.3396 1.7384 4.0949 1.7384 2.7393 0 3.4622-0.48842 3.4622-1.2815 0-0.88444-0.54144-1.1586-3.0862-1.448-0.50133-0.0457-1.866-0.21324-2.3783-0.2894-3.6096-0.41226-4.9993-1.4947-4.9993-3.4311 0-2.043 2.0334-3.5824 6.4441-3.5824 4.7877 0 6.6246 1.906 6.6246 3.8881h-3.008c0-1.0063-1.129-1.5861-3.7941-1.5861-2.7403 0-3.3268 0.38079-3.3268 1.1281 0 0.77782 0.6016 1.0215 3.5093 1.3718 0.66276 0.0924 2.1377 0.25995 2.5438 0.30463 3.0722 0.31986 4.4568 1.448 4.4568 3.4454-5e-3 2.3792-2.1126 3.7825-6.5835 3.7825z"/>
  <path class="ccustom" d="m124.77 24.153c-3.9284 0-6.4882-1.5709-6.4882-4.8741v-7.2623h2.8746v7.303c0 1.5099 1.2202 2.5152 3.7339 2.5152 2.273 0 3.6286-0.94435 3.6286-2.5152v-7.303h2.8456v7.5335c0 3.0026-2.3793 4.6029-6.5945 4.6029z"/>
  <path class="ccustom" d="m146.95 23.985v-7.9894l-3.6888 7.9894h-2.7994l-3.5835-7.9894v7.9894h-2.7072v-11.969h3.6677l4.0648 9.1175 4.155-9.1175h3.6096v11.969z"/>
 </g>
</svg>